<?xml version="1.0" encoding="UTF-8"?>
<svg width="248px" height="250px" viewBox="0 0 248 250" version="1.1" xmlns="http://www.w3.org/2000/svg" xmlns:xlink="http://www.w3.org/1999/xlink">
    <!-- Generator: sketchtool 51.2 (57519) - http://www.bohemiancoding.com/sketch -->
    <title>924E8E8E-235B-49B8-9EF3-37EAC5B0425C</title>
    <desc>Created with sketchtool.</desc>
    <defs></defs>
    <g id="Edit-Content" stroke="none" stroke-width="1" fill="none" fill-rule="evenodd">
        <g id="Card-Icons" transform="translate(-126.000000, -1543.000000)">
            <g id="Approvals" transform="translate(126.000000, 1543.000000)">
                <polygon id="Fill-1" fill="#015073" points="244 127.9921 244 127.9921 244 134.24099 243.521568 140.489879 242.545567 146.499531 241.598271 152.480474 240.153406 158.492996 238.459757 164.265324 236.565166 170.013728 234.402653 175.549689 231.981787 180.823446 229.340843 186.120169 226.47025 191.156601 223.09252 196.193034 219.743496 201.015109 216.136119 205.576894 212.289525 210.137722 208.222853 214.223903 204.137043 218.310083 199.58237 222.134059 195.018129 225.745591 190.195534 229.09492 185.401645 232.230848 180.119755 235.342852 174.828297 237.979252 169.555976 240.402634 164.015733 242.564386 158.274549 244.464891 152.49509 246.151517 146.753905 247.600627 140.744799 248.55088 134.496477 249.28732 128.248154 249.762437 121.999832 250 121.999832 250 115.75151 249.762437 109.503187 249.28732 103.522787 248.55088 97.5041121 247.600627 91.4988332 246.151517 85.7509508 244.464891 80.2164491 242.564386 74.7049121 240.402634 69.1704103 237.979252 63.8971325 235.342852 58.8381922 232.230848 53.8022166 229.09492 49.0035434 225.745591 44.4431292 222.134059 40.1200174 218.310083 35.7969056 214.223903 31.711096 210.137722 27.8625888 205.576894 24.2762623 201.015109 20.9033164 196.193034 17.7915945 191.156601 14.8932533 186.120169 12.0197905 180.823446 9.61997542 175.549689 7.45861088 170.013728 5.53464431 164.265324 3.84807571 158.492996 2.66041604 152.480474 1.44893045 146.499531 0.736363351 140.489879 0.261289913 134.24099 0 127.9921 0 127.9921 0.261289913 121.743211 0.736363351 115.52303 1.44893045 109.503809 2.66041604 103.494157 3.84807571 97.4845058 5.53464431 91.7428004 7.45861088 85.962817 9.61997542 80.4507798 12.0197905 75.1588413 14.8932533 69.8860419 17.7915945 64.8237716 20.9033164 59.7902099 24.2762623 54.9863164 27.8625888 50.4312302 31.711096 45.8665744 35.7969056 41.780394 40.1200174 37.6942137 44.4431292 33.8472711 49.0035434 30.2587052 53.8022166 26.8806686 58.8381922 23.5313404 63.8971325 20.6413487 69.1704103 18.0001643 74.7049121 15.5982175 80.2164491 13.4355085 85.7509508 11.5120372 91.4988332 9.82780359 97.5041121 8.40194675 103.522787 7.42585684 109.503187 6.71771317 115.75151 6.23923772 121.999832 6 121.999832 6 128.248154 6.23923772 134.496477 6.71771317 140.744799 7.42585684 146.753905 8.40194675 152.49509 9.82780359 158.274549 11.5120372 164.015733 13.4355085 169.555976 15.5982175 174.828297 18.0001643 180.119755 20.6413487 185.401645 23.5313404 190.195534 26.8806686 195.018129 30.2587052 199.58237 33.8472711 204.137043 37.6942137 208.222853 41.780394 212.289525 45.8665744 216.136119 50.4312302 219.743496 54.9863164 223.09252 59.7902099 226.47025 64.8237716 229.340843 69.8860419 231.981787 75.1588413 234.402653 80.4507798 236.565166 85.962817 238.459757 91.7428004 240.153406 97.4845058 241.598271 103.494157 242.545567 109.503809 243.521568 115.52303 244 121.743211"></polygon>
                <polygon id="Fill-2" fill="#01344B" points="185.346154 68 186.807692 70.398301 187.759615 72.787047 188.259615 75.6630971 188.5 78.5582573 188.5 79.5042007 188.5 86.9284232 161.575721 141.476574 161.575721 143.398081 161.075721 145.556552 160.594952 147.477104 159.883413 149.398611 158.902644 151.320118 157.950721 152.980774 156.489183 154.427399 155.296875 155.874023 154.825721 156.348906 153.364183 157.297716 151.91226 158.270413 150.479567 158.981304 148.777644 159.693151 147.085337 160.428884 145.393029 160.665848 143.719952 160.902812 141.78726 161.139775 109.053921 187.426789 110.881836 191.720799 105.90296 187.189826 103.01546 186.477979 100.126998 185.268318 97.6923828 183.821694 127.682692 249.288402 133.961538 249.288402 140.240385 248.553079 146.278846 247.604269 152.048077 246.157358 157.855769 244.473292 163.625 242.575672 169.192308 240.417201 174.490385 237.997497 179.807692 235.365099 185.115385 232.257818 189.932692 229.12665 194.778846 225.782406 199.365385 222.176355 203.942308 218.358183 208.048077 214.278205 212.134615 210.198227 216 205.644322 219.625 201.089461 222.990385 196.274704 226.384615 191.245916 229.269231 186.217128 231.923077 180.928445 234.355769 175.662693 236.528846 170.135135 238.432692 164.395456 240.134615 158.631889 241.586538 152.628493 242.538462 146.656628 243.519231 140.656098 244 134.416694 244 128.177289 244 125.778988"></polygon>
                <g id="Group" transform="translate(40.000000, 0.000000)">
                    <polygon id="Fill-7" fill="#6EBE4A" points="178.682856 0 178.682856 0 174.843088 0 171.548153 0.648963047 167.604608 1.27196757 164.387505 3.27077376 161.767123 5.2176629 158.524076 7.13859352 155.903694 9.78636275 153.957866 13.0052195 83 119.850496 107.07638 157.023099 107.07638 157.023099 109.074097 160.890919 110.993981 164.187651 111.64259 168.117771 112.2912 171.985591 112.2912 175.915711 111.64259 179.845831 110.993981 183.713651 109.074097 187 202.785181 45.609123 202.785181 45.609123 205.431507 41.6893862 206.702781 37.8215664 207.351391 33.8758711 208 29.3071712 208 29.3071712 208 26.0883145 207.351391 22.1685777 206.080116 18.8718454 204.782897 15.6529887 202.785181 12.3562564 200.216687 9.78636275 197.570361 7.13859352 195.001868 4.56869985 195.001868 4.56869985 195.001868 4.56869985 195.001868 4.56869985 195.001868 4.56869985 191.058323 2.62181071 187.192611 0.648963047 182.626401 0"></polygon>
                    <polygon id="Fill-9" fill="#6EBE4A" points="29.0551181 65 29.0551181 65 25.1579509 65.6482145 20.6897136 66.2705004 16.7925464 67.5669295 12.8979515 70.2116447 12.8979515 70.2116447 10.3435706 72.1303596 7.72488001 74.7750748 5.17049911 77.9902188 3.25664272 80.634934 1.91385639 83.850078 0.637952128 87.7912222 0 91.0063662 0 94.9215819 0 94.9215819 0.637952128 98.8627261 1.27590426 103.348371 2.6161182 107.289515 5.17049911 111.20473 55.5558553 188 55.5558553 188 54.2182138 184.717442 52.93202 180.854083 52.288923 176.928496 52.288923 173.002909 52.93202 169.139551 54.2182138 165.213963 55.5558553 161.921034 57.4594222 158.057675 82 120.927948 53.5751169 77.9902188 53.5751169 77.9902188 51.67155 75.4232893 49.0477147 72.7785741 45.857954 70.2116447 43.2341186 68.2670011 40.0392132 66.918715 36.142046 65.6482145 32.949713 65"></polygon>
                    <polygon id="Fill-11" fill="#308E15" points="82.0129926 120 57.2230403 157.00028 57.2230403 157.00028 55.3001299 160.85017 53.9488956 164.131619 52.6496319 168.04352 52 171.89341 52 175.805311 52.6496319 179.717212 53.9488956 183.567101 55.3001299 186.838216 57.2230403 190.044734 57.2230403 190.044734 59.8215678 193.315848 63.0957124 196.522367 65.6942399 198.511907 69.6180165 200.434268 69.6180165 200.434268 74.8410567 202.359213 80.7137289 203 80.7137289 203 80.7137289 203 81.3633608 203 82.0129926 203 82.6626245 203 82.6626245 203 83.2862711 203 83.935903 203 83.935903 203 89.1589433 202.359213 94.3819835 200.434268 94.3819835 200.434268 98.3317453 198.511907 101.553919 196.522367 104.204417 193.315848 106.77696 190.044734 108.777826 186.838216 108.777826 186.838216 110.700736 183.567101 111.350368 179.717212 112 175.805311 112 171.89341 111.350368 168.04352 110.700736 164.131619 108.777826 160.85017 106.77696 157.00028 82.6626245 120 82.0129926 120.697631"></polygon>
                </g>
            </g>
        </g>
    </g>
</svg>